<svg width="29" height="29" viewBox="0 0 29 29" fill="none" xmlns="http://www.w3.org/2000/svg">
<rect width="29" height="29" rx="3.48" fill="#2493C3"/>
<path d="M9.87 11.5007C10.77 11.5007 11.49 10.7695 11.49 9.88074C11.49 8.99199 10.7588 8.26074 9.87 8.26074C8.98125 8.26074 8.25 8.99199 8.25 9.88074C8.25 10.7695 8.98125 11.5007 9.87 11.5007ZM13.0312 12.727V21.7495H15.8212V17.2945C15.8212 16.1132 16.0463 14.977 17.4975 14.977C18.9488 14.977 18.9488 16.327 18.9488 17.362V21.7495H21.75V16.7995C21.75 14.3695 21.2325 12.502 18.3975 12.502C17.0363 12.502 16.125 13.2445 15.7537 13.9532H15.72V12.7157H13.0425L13.0312 12.727ZM8.475 12.727H11.2763V21.7495H8.475V12.727Z" fill="white"/>
</svg>
