<svg width="29" height="29" viewBox="0 0 29 29" fill="none" xmlns="http://www.w3.org/2000/svg">
<rect width="29" height="29" rx="3.48" fill="#2493C3"/>
<path fill-rule="evenodd" clip-rule="evenodd" d="M7.85 22.2C7.09413 22.2 6.36922 21.8997 5.83475 21.3653C5.30027 20.8308 5 20.1059 5 19.35V9.85C5 9.09413 5.30027 8.36922 5.83475 7.83475C6.36922 7.30027 7.09413 7 7.85 7H21.15C21.9059 7 22.6308 7.30027 23.1653 7.83475C23.6997 8.36922 24 9.09413 24 9.85V19.35C24 20.1059 23.6997 20.8308 23.1653 21.3653C22.6308 21.8997 21.9059 22.2 21.15 22.2H7.85ZM10.3438 11.009C10.247 10.9264 10.1346 10.864 10.0133 10.8257C9.89193 10.7873 9.76412 10.7737 9.63744 10.7857C9.51075 10.7976 9.38776 10.835 9.27576 10.8954C9.16377 10.9558 9.06506 11.0381 8.98549 11.1374C8.90592 11.2367 8.84711 11.351 8.81255 11.4735C8.77799 11.5959 8.76839 11.7241 8.78432 11.8504C8.80025 11.9766 8.84138 12.0984 8.90527 12.2084C8.96916 12.3185 9.05451 12.4146 9.15625 12.491L12.7188 15.342C13.2242 15.7467 13.8525 15.9672 14.5 15.9672C15.1475 15.9672 15.7758 15.7467 16.2812 15.342L19.8438 12.492C19.9412 12.414 20.0223 12.3176 20.0825 12.2083C20.1427 12.0989 20.1807 11.9788 20.1945 11.8548C20.2082 11.7308 20.1974 11.6052 20.1627 11.4854C20.1279 11.3655 20.0699 11.2537 19.992 11.1562C19.914 11.0588 19.8176 10.9777 19.7083 10.9175C19.5989 10.8573 19.4788 10.8193 19.3548 10.8055C19.2308 10.7918 19.1052 10.8026 18.9854 10.8373C18.8655 10.8721 18.7537 10.9301 18.6562 11.008L15.0938 13.858C14.9253 13.993 14.7158 14.0665 14.5 14.0665C14.2842 14.0665 14.0747 13.993 13.9062 13.858L10.3438 11.009Z" fill="#FFFAFA"/>
</svg>
